<mxfile host="app.diagrams.net" modified="2024-06-02T16:42:40.560Z" agent="Mozilla/5.0 (Windows NT 10.0; Win64; x64) AppleWebKit/537.36 (KHTML, like Gecko) Chrome/125.0.0.0 Safari/537.36 Edg/125.0.0.0" etag="77SlW9C1e-Z4Gy-46kh3" version="24.4.13" type="device">
  <diagram name="Page-1" id="SSLmwUUN8hilpWxeudQM">
    <mxGraphModel dx="786" dy="467" grid="1" gridSize="10" guides="1" tooltips="1" connect="1" arrows="1" fold="1" page="1" pageScale="1" pageWidth="850" pageHeight="1100" math="0" shadow="0">
      <root>
        <mxCell id="0" />
        <mxCell id="1" parent="0" />
        <mxCell id="S8ac0U9AQ1tKpjzVfgD0-2" value="" style="sketch=0;outlineConnect=0;fontColor=#232F3E;gradientColor=none;fillColor=#ED7100;strokeColor=none;dashed=0;verticalLabelPosition=bottom;verticalAlign=top;align=center;html=1;fontSize=12;fontStyle=0;aspect=fixed;pointerEvents=1;shape=mxgraph.aws4.p3dn_instance;" vertex="1" parent="1">
          <mxGeometry x="180" y="90" width="48" height="48" as="geometry" />
        </mxCell>
        <mxCell id="S8ac0U9AQ1tKpjzVfgD0-3" value="Coffee Pot" style="sketch=0;outlineConnect=0;fontColor=#232F3E;gradientColor=none;strokeColor=#232F3E;fillColor=#ffffff;dashed=0;verticalLabelPosition=bottom;verticalAlign=top;align=center;html=1;fontSize=12;fontStyle=0;aspect=fixed;shape=mxgraph.aws4.resourceIcon;resIcon=mxgraph.aws4.coffee_pot;" vertex="1" parent="1">
          <mxGeometry x="180" y="200" width="60" height="60" as="geometry" />
        </mxCell>
        <mxCell id="S8ac0U9AQ1tKpjzVfgD0-4" value="" style="rhombus;whiteSpace=wrap;html=1;" vertex="1" parent="1">
          <mxGeometry x="260" y="120" width="250" height="80" as="geometry" />
        </mxCell>
      </root>
    </mxGraphModel>
  </diagram>
</mxfile>
